<svg width="30" height="37" viewBox="0 0 30 37" fill="none" xmlns="http://www.w3.org/2000/svg">
<path d="M30 15C30 16.2468 27.7568 17.1888 27.4465 18.3376C27.1252 19.53 28.5953 21.4628 27.9909 22.5027C27.3811 23.559 24.9637 23.2541 24.1089 24.1089C23.2486 24.9692 23.559 27.3811 22.5027 27.9909C21.4573 28.5953 19.5245 27.1252 18.3376 27.4465C17.1833 27.7568 16.2468 30 15 30C13.7532 30 12.8113 27.7568 11.6624 27.4465C10.4701 27.1307 8.5372 28.5953 7.49728 27.9909C6.44102 27.3811 6.74592 24.9637 5.89111 24.1089C5.03085 23.2486 2.61887 23.559 2.00907 22.5027C1.40472 21.4574 2.87477 19.5245 2.55354 18.3376C2.24319 17.1833 0 16.2468 0 15C0 13.7532 2.24319 12.8113 2.55354 11.6624C2.87477 10.4701 1.40472 8.53721 2.00907 7.49728C2.61887 6.44102 5.0363 6.74592 5.89111 5.89111C6.74592 5.0363 6.44102 2.61888 7.49728 2.00908C8.54265 1.40472 10.4755 2.87477 11.6624 2.55354C12.8167 2.2432 13.7532 0 15 0C16.2468 0 17.1887 2.2432 18.3376 2.55354C19.5299 2.87477 21.4628 1.40472 22.5027 2.00908C23.559 2.61888 23.2541 5.0363 24.1089 5.89111C24.9691 6.75136 27.3811 6.44102 27.9909 7.49728C28.5953 8.54265 27.1252 10.4755 27.4465 11.6624C27.7568 12.8167 30 13.7532 30 15Z" fill="#D7A500"/>
<path d="M12.0128 27.38L6.89484 36.2385L5.47378 31.0388L0.257812 32.4054L5.35945 23.5742" fill="#D7A500"/>
<path d="M18.2344 27.38L23.3523 36.2385L24.7734 31.0388L29.9894 32.4054L24.8877 23.5742" fill="#D7A500"/>
<path d="M16.9709 8.19673V22.7422H15.2095V10.0433H15.1243L11.5732 12.4013V10.6115L15.2095 8.19673H16.9709Z" fill="white"/>
</svg>
