<svg width="30" height="37" viewBox="0 0 30 37" fill="none" xmlns="http://www.w3.org/2000/svg">
<path d="M30 15C30 16.2468 27.7568 17.1888 27.4465 18.3376C27.1252 19.53 28.5953 21.4628 27.9909 22.5027C27.3811 23.559 24.9637 23.2541 24.1089 24.1089C23.2486 24.9692 23.559 27.3811 22.5027 27.9909C21.4573 28.5953 19.5245 27.1252 18.3376 27.4465C17.1833 27.7568 16.2468 30 15 30C13.7532 30 12.8113 27.7568 11.6624 27.4465C10.4701 27.1307 8.5372 28.5953 7.49728 27.9909C6.44102 27.3811 6.74592 24.9637 5.89111 24.1089C5.03085 23.2486 2.61887 23.559 2.00907 22.5027C1.40472 21.4574 2.87477 19.5245 2.55354 18.3376C2.24319 17.1833 0 16.2468 0 15C0 13.7532 2.24319 12.8113 2.55354 11.6624C2.87477 10.4701 1.40472 8.53721 2.00907 7.49728C2.61887 6.44102 5.0363 6.74592 5.89111 5.89111C6.74592 5.0363 6.44102 2.61888 7.49728 2.00908C8.54265 1.40472 10.4755 2.87477 11.6624 2.55354C12.8167 2.2432 13.7532 0 15 0C16.2468 0 17.1887 2.2432 18.3376 2.55354C19.5299 2.87477 21.4628 1.40472 22.5027 2.00908C23.559 2.61888 23.2541 5.0363 24.1089 5.89111C24.9691 6.75136 27.3811 6.44102 27.9909 7.49728C28.5953 8.54265 27.1252 10.4755 27.4465 11.6624C27.7568 12.8167 30 13.7532 30 15Z" fill="#A28051"/>
<path d="M12.0128 27.38L6.89484 36.2385L5.47378 31.0388L0.257812 32.4054L5.35945 23.5742" fill="#A28051"/>
<path d="M18.2344 27.38L23.3523 36.2385L24.7734 31.0388L29.9894 32.4054L24.8877 23.5742" fill="#A28051"/>
<path d="M15.0533 22.9411C14.1158 22.9411 13.2801 22.7801 12.5462 22.4581C11.817 22.1361 11.237 21.6887 10.8061 21.1158C10.38 20.5381 10.148 19.8681 10.1101 19.1058H11.8999C11.9377 19.5746 12.0987 19.9794 12.3828 20.3203C12.6669 20.6565 13.0386 20.9169 13.4979 21.1016C13.9571 21.2862 14.4661 21.3786 15.0249 21.3786C15.6499 21.3786 16.2038 21.2696 16.6868 21.0518C17.1697 20.834 17.5485 20.531 17.8232 20.1428C18.0978 19.7545 18.2351 19.3047 18.2351 18.7933C18.2351 18.2583 18.1025 17.7872 17.8374 17.38C17.5722 16.968 17.1839 16.6461 16.6726 16.4141C16.1612 16.1821 15.5362 16.0661 14.7976 16.0661H13.6328V14.5036H14.7976C15.3752 14.5036 15.8819 14.3994 16.3175 14.1911C16.7578 13.9827 17.1011 13.6892 17.3473 13.3104C17.5982 12.9316 17.7237 12.4865 17.7237 11.9751C17.7237 11.4827 17.6148 11.0542 17.397 10.6896C17.1792 10.325 16.8714 10.041 16.4737 9.83736C16.0807 9.63376 15.6167 9.53196 15.0817 9.53196C14.5798 9.53196 14.1063 9.62429 13.6612 9.80895C13.2209 9.98887 12.861 10.2517 12.5817 10.5973C12.3023 10.9382 12.1508 11.3501 12.1271 11.8331H10.4226C10.451 11.0708 10.6806 10.4032 11.1115 9.83026C11.5424 9.2526 12.1058 8.80279 12.8018 8.48082C13.5026 8.15885 14.272 7.99787 15.1101 7.99787C16.0097 7.99787 16.7815 8.18016 17.4254 8.54474C18.0694 8.90459 18.5642 9.38044 18.9098 9.9723C19.2554 10.5642 19.4283 11.2034 19.4283 11.8899C19.4283 12.709 19.2128 13.4074 18.782 13.9851C18.3558 14.5627 17.7758 14.9628 17.0419 15.1854V15.299C17.9605 15.4505 18.6778 15.8411 19.1939 16.4709C19.71 17.0959 19.968 17.87 19.968 18.7933C19.968 19.584 19.7526 20.2943 19.3217 20.924C18.8956 21.549 18.3132 22.0414 17.5746 22.4013C16.8359 22.7611 15.9955 22.9411 15.0533 22.9411Z" fill="white"/>
</svg>
